<svg width="53" height="53" viewBox="0 0 53 53" version="1.1" xmlns="http://www.w3.org/2000/svg" xmlns:xlink="http://www.w3.org/1999/xlink">
<title>logo_ua</title>
<desc>Created using Figma</desc>
<g id="Canvas" transform="translate(-143 -1515)">
<g id="logo_ua">
<g id="&#208;&#161;&#208;&#187;&#208;&#190;&#208;&#185; 2">
<g id="Layer 1">
<g id="header">
<g id="header">
<g id="Vector">
<use xlink:href="#path0_fill" transform="translate(143.03 1515)" fill="#C9C9C9"/>
</g>
<g id="Vector">
<use xlink:href="#path1_fill" transform="translate(169.29 1515.03)" fill="#807E7D"/>
</g>
<g id="Vector">
<use xlink:href="#path2_fill" transform="translate(150.7 1522.7)" fill="#807E7D"/>
</g>
<g id="Vector">
<use xlink:href="#path3_fill" transform="translate(143 1539.89)" fill="#807E7D"/>
</g>
<g id="Vector">
<use xlink:href="#path4_fill" transform="translate(150.675 1541.32)" fill="#807E7D"/>
</g>
<g id="Vector">
<use xlink:href="#path5_fill" transform="translate(167.87 1541.32)" fill="#807E7D"/>
</g>
<g id="Vector">
<use xlink:href="#path6_fill" transform="translate(169.29 1541.32)" fill="#807E7D"/>
</g>
<g id="Vector">
<use xlink:href="#path7_fill" transform="translate(169.29 1541.32)" fill="#807E7D"/>
</g>
<g id="Vector">
<use xlink:href="#path8_fill" transform="translate(169.29 1522.73)" fill="#807E7D"/>
</g>
<g id="Vector">
<use xlink:href="#path9_fill" transform="translate(167.26 1518.14)" fill="#807E7D"/>
</g>
<g id="Vector">
<use xlink:href="#path10_fill" transform="translate(151.46 1526.36)" fill="#807E7D"/>
</g>
<g id="Vector">
<use xlink:href="#path11_fill" transform="translate(146.11 1541.35)" fill="#807E7D"/>
</g>
<g id="Vector">
<use xlink:href="#path12_fill" transform="translate(154.329 1541.31)" fill="#807E7D"/>
</g>
<g id="Vector">
<use xlink:href="#path13_fill" transform="translate(169.32 1541.32)" fill="#807E7D"/>
</g>
<g id="Vector">
<use xlink:href="#path14_fill" transform="translate(169.28 1541.28)" fill="#807E7D"/>
</g>
<g id="Vector">
<use xlink:href="#path15_fill" transform="translate(169.29 1539.26)" fill="#807E7D"/>
</g>
<g id="Vector">
<use xlink:href="#path16_fill" transform="translate(169.25 1523.49)" fill="#807E7D"/>
</g>
<g id="Vector">
<use xlink:href="#path17_fill" transform="translate(165.55 1520.11)" fill="#807E7D"/>
</g>
<g id="Vector">
<use xlink:href="#path18_fill" transform="translate(151.65 1528.95)" fill="#807E7D"/>
</g>
<g id="Vector">
<use xlink:href="#path19_fill" transform="translate(148.08 1541.29)" fill="#807E7D"/>
</g>
<g id="Vector">
<use xlink:href="#path20_fill" transform="translate(156.92 1541.32)" fill="#807E7D"/>
</g>
<g id="Vector">
<use xlink:href="#path21_fill" transform="translate(169.29 1541.32)" fill="#807E7D"/>
</g>
<g id="Vector">
<use xlink:href="#path22_fill" transform="translate(169.29 1541.32)" fill="#807E7D"/>
</g>
<g id="Vector">
<use xlink:href="#path23_fill" transform="translate(169.29 1537.58)" fill="#807E7D"/>
</g>
<g id="Vector">
<use xlink:href="#path24_fill" transform="translate(169.29 1523.68)" fill="#807E7D"/>
</g>
<g id="Vector">
<use xlink:href="#path25_fill" transform="translate(164.1 1521.96)" fill="#807E7D"/>
</g>
<g id="Vector">
<use xlink:href="#path26_fill" transform="translate(151.92 1531.23)" fill="#807E7D"/>
</g>
<g id="Vector">
<use xlink:href="#path27_fill" transform="translate(149.93 1541.32)" fill="#807E7D"/>
</g>
<g id="Vector">
<use xlink:href="#path28_fill" transform="translate(159.189 1541.31)" fill="#807E7D"/>
</g>
<g id="Vector">
<use xlink:href="#path29_fill" transform="translate(169.29 1541.32)" fill="#807E7D"/>
</g>
<g id="Vector">
<use xlink:href="#path30_fill" transform="translate(169.28 1541.33)" fill="#807E7D"/>
</g>
<g id="Vector">
<use xlink:href="#path31_fill" transform="translate(169.29 1536.13)" fill="#807E7D"/>
</g>
<g id="Vector">
<use xlink:href="#path32_fill" transform="translate(169.3 1523.95)" fill="#807E7D"/>
</g>
<g id="Vector">
<use xlink:href="#path33_fill" transform="translate(162.9 1523.76)" fill="#807E7D"/>
</g>
<g id="Vector">
<use xlink:href="#path34_fill" transform="translate(152.35 1533.3)" fill="#807E7D"/>
</g>
<g id="Vector">
<use xlink:href="#path35_fill" transform="translate(151.73 1541.32)" fill="#807E7D"/>
</g>
<g id="Vector">
<use xlink:href="#path36_fill" transform="translate(161.271 1541.32)" fill="#807E7D"/>
</g>
<g id="Vector">
<use xlink:href="#path37_fill" transform="translate(169.29 1541.32)" fill="#807E7D"/>
</g>
<g id="Vector">
<use xlink:href="#path38_fill" transform="translate(169.29 1541.32)" fill="#807E7D"/>
</g>
<g id="Vector">
<use xlink:href="#path39_fill" transform="translate(169.29 1534.9)" fill="#807E7D"/>
</g>
<g id="Vector">
<use xlink:href="#path40_fill" transform="translate(169.29 1524.38)" fill="#807E7D"/>
</g>
<g id="Vector">
<use xlink:href="#path41_fill" transform="translate(169.29 1523.76)" fill="#807E7D"/>
</g>
<g id="Vector">
<use xlink:href="#path42_fill" transform="translate(161.39 1524.38)" fill="#807E7D"/>
</g>
<g id="Vector">
<use xlink:href="#path43_fill" transform="translate(151.73 1534.74)" fill="#807E7D"/>
</g>
<g id="Vector">
<use xlink:href="#path44_fill" transform="translate(152.35 1541.32)" fill="#807E7D"/>
</g>
<g id="Vector">
<use xlink:href="#path45_fill" transform="translate(162.711 1541.32)" fill="#807E7D"/>
</g>
<g id="Vector">
<use xlink:href="#path46_fill" transform="translate(169.29 1541.32)" fill="#807E7D"/>
</g>
<g id="Vector">
<use xlink:href="#path47_fill" transform="translate(169.29 1541.32)" fill="#807E7D"/>
</g>
<g id="Vector">
<use xlink:href="#path48_fill" transform="translate(169.29 1533.42)" fill="#807E7D"/>
</g>
<g id="Vector">
<use xlink:href="#path49_fill" transform="translate(169.29 1521.97)" fill="#807E7D"/>
</g>
<g id="Vector">
<use xlink:href="#path50_fill" transform="translate(159.27 1523.97)" fill="#807E7D"/>
</g>
<g id="Vector">
<use xlink:href="#path51_fill" transform="translate(149.94 1535.81)" fill="#807E7D"/>
</g>
<g id="Vector">
<use xlink:href="#path52_fill" transform="translate(151.94 1541.33)" fill="#807E7D"/>
</g>
<g id="Vector">
<use xlink:href="#path53_fill" transform="translate(163.78 1541.31)" fill="#807E7D"/>
</g>
<g id="Vector">
<use xlink:href="#path54_fill" transform="translate(169.3 1541.31)" fill="#807E7D"/>
</g>
<g id="Vector">
<use xlink:href="#path55_fill" transform="translate(169.29 1541.32)" fill="#807E7D"/>
</g>
<g id="Vector">
<use xlink:href="#path56_fill" transform="translate(169.28 1531.3)" fill="#807E7D"/>
</g>
<g id="Vector">
<use xlink:href="#path57_fill" transform="translate(169.29 1520.11)" fill="#807E7D"/>
</g>
<g id="Vector">
<use xlink:href="#path58_fill" transform="translate(156.9 1523.68)" fill="#807E7D"/>
</g>
<g id="Vector">
<use xlink:href="#path59_fill" transform="translate(148.08 1537.08)" fill="#807E7D"/>
</g>
<g id="Vector">
<use xlink:href="#path60_fill" transform="translate(151.65 1541.32)" fill="#807E7D"/>
</g>
<g id="Vector">
<use xlink:href="#path61_fill" transform="translate(165.047 1541.31)" fill="#807E7D"/>
</g>
<g id="Vector">
<use xlink:href="#path62_fill" transform="translate(169.29 1541.32)" fill="#807E7D"/>
</g>
<g id="Vector">
<use xlink:href="#path63_fill" transform="translate(169.29 1541.32)" fill="#807E7D"/>
</g>
<g id="Vector">
<use xlink:href="#path64_fill" transform="translate(169.29 1528.93)" fill="#807E7D"/>
</g>
<g id="Vector">
<use xlink:href="#path65_fill" transform="translate(169.32 1518.14)" fill="#807E7D"/>
</g>
<g id="Vector">
<use xlink:href="#path66_fill" transform="translate(154.33 1523.49)" fill="#807E7D"/>
</g>
<g id="Vector">
<use xlink:href="#path67_fill" transform="translate(146.11 1538.57)" fill="#807E7D"/>
</g>
<g id="Vector">
<use xlink:href="#path68_fill" transform="translate(151.46 1541.28)" fill="#807E7D"/>
</g>
<g id="Vector">
<use xlink:href="#path69_fill" transform="translate(166.537 1541.32)" fill="#807E7D"/>
</g>
<g id="Vector">
<use xlink:href="#path70_fill" transform="translate(169.25 1541.31)" fill="#807E7D"/>
</g>
<g id="Vector">
<use xlink:href="#path71_fill" transform="translate(169.29 1541.35)" fill="#807E7D"/>
</g>
<g id="Vector">
<use xlink:href="#path72_fill" transform="translate(169.28 1526.36)" fill="#807E7D"/>
</g>
<g id="Vector">
<use xlink:href="#path73_fill" transform="translate(161.4 1530.25)" fill="#283A68"/>
</g>
<g id="Vector">
<use xlink:href="#path74_fill" transform="translate(161.199 1530.03)" fill="#FFDC2E"/>
</g>
<g id="Vector">
<use xlink:href="#path75_fill" transform="translate(163.67 1531.76)" fill="#FFDC2E"/>
</g>
</g>
</g>
</g>
</g>
</g>
</g>
<defs>
<path id="path0_fill" d="M 26.26 26.32L 26.35 26.32L 26.26 26.32ZM 26.26 26.32L 26.31 26.32L 26.26 26.32ZM 26.26 26.32L 26.26 26.41L 26.26 26.32ZM 26.26 26.32L 26.26 26.44L 26.26 26.32ZM 26.26 26.32L 26.26 26.43L 26.26 26.32ZM 26.26 26.21L 26.2 26.3L 26.26 26.21ZM 26.2 26.06L 26.26 26.21L 26.2 26.06ZM 26.27 26.21L 26.27 26.07L 26.27 26.21ZM 26.27 26.15L 26.27 26.21L 26.27 26.15ZM 26.27 26.21L 26.41 26.12L 26.27 26.21ZM 26.27 26.21L 26.21 26.21L 26.27 26.21ZM 26.27 26.21L 26.12 26.15L 26.27 26.21ZM 49.57 24.78L 48.57 24.84C 48.8979 24.6751 49.1928 24.4514 49.44 24.18C 48.6636 23.6004 47.6891 23.3522 46.73 23.49L 45.61 23.64C 46.3436 23.4695 46.9987 23.0574 47.47 22.47C 46.7061 21.9961 45.7853 21.845 44.91 22.05L 43.98 22.26C 44.6433 22.0392 45.2136 21.6027 45.6 21.02C 44.8554 20.6447 43.9923 20.58 43.2 20.84L 42.41 21.09C 43.0103 20.8335 43.5069 20.3827 43.82 19.81C 43.1749 19.5702 42.4651 19.5702 41.82 19.81C 42.4471 19.4994 42.9458 18.9794 43.23 18.34C 42.6084 18.1514 41.9408 18.1832 41.34 18.43L 42.07 18.05C 42.8073 17.6671 43.3694 17.0155 43.64 16.23C 42.9622 16.0863 42.2555 16.1817 41.64 16.5L 42.43 15.99C 43.1844 15.51 43.7252 14.758 43.94 13.89C 43.1959 13.7987 42.4431 13.9684 41.81 14.37L 42.7 13.69C 43.4672 13.1033 43.9793 12.244 44.13 11.29C 43.7643 11.2668 43.3977 11.3143 43.05 11.43L 43.79 10.78C 44.1985 10.3778 44.5099 9.88775 44.7005 9.3471C 44.8911 8.80646 44.9559 8.22946 44.89 7.66C 44.3202 7.58711 43.7412 7.64863 43.1994 7.83964C 42.6576 8.03065 42.1681 8.34585 41.77 8.76L 41.11 9.51C 41.2268 9.15902 41.2776 8.78947 41.26 8.42C 40.3028 8.56163 39.4402 9.07557 38.86 9.85L 38.17 10.75C 38.5649 10.1104 38.7339 9.35694 38.65 8.61C 37.7779 8.81601 37.0229 9.35891 36.55 10.12L 35.97 11.03C 36.2784 10.4114 36.3733 9.70819 36.24 9.03C 35.4497 9.29221 34.7953 9.85668 34.42 10.6L 34.04 11.33C 34.2812 10.7245 34.3129 10.0556 34.13 9.43C 33.4841 9.70446 32.9611 10.2061 32.66 10.84C 32.8888 10.193 32.8888 9.48704 32.66 8.84C 32.0833 9.14802 31.631 9.64625 31.38 10.25L 31.63 9.46C 31.8814 8.66668 31.8169 7.80694 31.45 7.06C 30.8601 7.43856 30.4214 8.01172 30.21 8.68L 30.42 7.75C 30.5231 7.30204 30.5364 6.8381 30.4591 6.38498C 30.3819 5.93185 30.2156 5.49852 29.97 5.11C 29.3778 5.57283 28.9644 6.2266 28.8 6.96L 28.97 5.85C 29.097 4.89155 28.8499 3.92103 28.28 3.14C 28.007 3.3818 27.783 3.67375 27.62 4L 27.68 3C 27.6887 2.42463 27.5651 1.85495 27.3189 1.33483C 27.0728 0.814721 26.7105 0.358052 26.26 6.70553e-10C 25.803 0.352827 25.4355 0.808224 25.1871 1.32938C 24.9386 1.85054 24.8163 2.42283 24.83 3L 24.89 4C 24.7251 3.67206 24.5014 3.37718 24.23 3.13C 23.6504 3.90639 23.4022 4.88095 23.54 5.84L 23.69 6.96C 23.5174 6.23002 23.1056 5.57878 22.52 5.11C 22.0461 5.87389 21.895 6.79473 22.1 7.67L 22.31 8.6C 22.0912 7.93299 21.6544 7.35891 21.07 6.97C 20.6947 7.71464 20.63 8.57771 20.89 9.37L 21.14 10.16C 20.8836 9.56543 20.4368 9.07295 19.87 8.76C 19.6302 9.4051 19.6302 10.1149 19.87 10.76C 19.5613 10.1292 19.0411 9.62668 18.4 9.34C 18.2123 9.96167 18.244 10.629 18.49 11.23L 18.11 10.5C 17.7271 9.76267 17.0755 9.20062 16.29 8.93C 16.1463 9.60784 16.2417 10.3145 16.56 10.93L 16.05 10.13C 15.57 9.37556 14.818 8.83484 13.95 8.62C 13.8596 9.36411 14.0292 10.1166 14.43 10.75L 13.75 9.86C 13.1633 9.09279 12.304 8.58074 11.35 8.43C 11.3268 8.79565 11.3743 9.16234 11.49 9.51L 10.84 8.77C 10.4273 8.36441 9.92649 8.05955 9.37666 7.87916C 8.82683 7.69878 8.24279 7.64773 7.67 7.73C 7.5971 8.29982 7.65863 8.8788 7.84964 9.42058C 8.04065 9.96236 8.35585 10.4519 8.77 10.85L 9.52 11.51C 9.16902 11.3932 8.79947 11.3424 8.43 11.36C 8.57163 12.3172 9.08557 13.1798 9.86 13.76L 10.75 14.44C 10.1104 14.0451 9.35694 13.8761 8.61 13.96C 8.82559 14.8226 9.37147 15.566 10.13 16.03L 10.93 16.54C 10.3114 16.2316 9.60819 16.1367 8.93 16.27C 9.19317 17.0598 9.75736 17.7138 10.5 18.09L 11.24 18.47C 10.6346 18.228 9.96553 18.1963 9.34 18.38C 9.61446 19.0259 10.1161 19.5489 10.75 19.85C 10.103 19.6212 9.39704 19.6212 8.75 19.85C 9.05486 20.4255 9.54953 20.8778 10.15 21.13L 9.37 20.88C 8.57656 20.6296 7.71721 20.6941 6.97 21.06C 7.34856 21.6499 7.92173 22.0886 8.59 22.3L 7.67 22.09C 6.7976 21.8975 5.88458 22.0479 5.12 22.51C 5.58283 23.1022 6.2366 23.5156 6.97 23.68L 5.85 23.53C 4.89161 23.4041 3.92147 23.6511 3.14 24.22C 3.3818 24.493 3.67375 24.717 4 24.88L 3 24.82C 2.4238 24.8125 1.8536 24.9376 1.33343 25.1856C 0.813261 25.4335 0.357039 25.7977 -6.70554e-10 26.25C 0.353868 26.7051 0.809723 27.0708 1.33082 27.3174C 1.85191 27.5641 2.42367 27.6848 3 27.67L 4 27.61C 3.67206 27.7749 3.37718 27.9986 3.13 28.27C 3.88358 28.8606 4.83814 29.1333 5.79 29.03L 6.91 28.88C 6.17911 29.0452 5.52442 29.45 5.05 30.03C 5.81081 30.5023 6.72792 30.6533 7.6 30.45L 8.53 30.24C 7.86299 30.4588 7.28891 30.8956 6.9 31.48C 7.64464 31.8553 8.50771 31.92 9.3 31.66L 10.09 31.41C 9.48974 31.6665 8.99314 32.1173 8.68 32.69C 9.32494 32.9307 10.0351 32.9307 10.68 32.69C 10.0529 33.0006 9.55418 33.5206 9.27 34.16C 9.89464 34.3509 10.5662 34.3191 11.17 34.07L 10.44 34.45C 9.70597 34.8551 9.15755 35.529 8.91 36.33C 9.61046 36.4791 10.3412 36.3727 10.97 36.03L 10.17 36.54C 9.41556 37.02 8.87484 37.772 8.66 38.64C 9.40736 38.732 10.1635 38.5623 10.8 38.16L 9.9 38.85C 9.13279 39.4367 8.62074 40.296 8.47 41.25C 8.83565 41.2732 9.20235 41.2257 9.55 41.11L 8.81 41.76C 8.4015 42.1622 8.0901 42.6523 7.89949 43.1929C 7.70888 43.7335 7.64407 44.3105 7.71 44.88C 8.27982 44.9529 8.8588 44.8914 9.40058 44.7004C 9.94236 44.5093 10.4319 44.1942 10.83 43.78L 11.49 43.03C 11.3732 43.381 11.3224 43.7505 11.34 44.12C 12.2972 43.9784 13.1598 43.4644 13.74 42.69L 14.42 41.79C 14.0259 42.4299 13.8569 43.1831 13.94 43.93C 14.7829 43.7124 15.5097 43.1789 15.97 42.44L 16.48 41.63C 16.169 42.2476 16.0706 42.9507 16.2 43.63C 16.9898 43.3668 17.6438 42.8026 18.02 42.06L 18.4 41.32C 18.1588 41.9255 18.1271 42.5944 18.31 43.22C 18.9559 42.9455 19.4789 42.4439 19.78 41.81C 19.5512 42.457 19.5512 43.163 19.78 43.81C 20.3573 43.5026 20.8097 43.0042 21.06 42.4L 20.81 43.19C 20.5596 43.9834 20.6241 44.8428 20.99 45.59C 21.599 45.2405 22.0661 44.6885 22.31 44.03L 22.1 44.96C 21.9048 45.8356 22.0553 46.7527 22.52 47.52C 23.1122 47.0572 23.5256 46.4034 23.69 45.67L 23.54 46.79C 23.413 47.7484 23.6601 48.719 24.23 49.5C 24.503 49.2582 24.727 48.9663 24.89 48.64L 24.83 49.64C 24.8213 50.2154 24.9449 50.7851 25.1911 51.3052C 25.4372 51.8253 25.7995 52.2819 26.25 52.64C 26.707 52.2872 27.0745 51.8318 27.3229 51.3106C 27.5714 50.7895 27.6937 50.2172 27.68 49.64L 27.62 48.64C 27.7849 48.9679 28.0086 49.2628 28.28 49.51C 28.5683 49.1243 28.7776 48.6855 28.896 48.2188C 29.0144 47.752 29.0396 47.2665 28.97 46.79L 28.82 45.67C 28.9873 46.3973 29.3919 47.0482 29.97 47.52C 30.4439 46.7561 30.595 45.8353 30.39 44.96L 30.21 44.03C 30.4288 44.697 30.8656 45.2711 31.45 45.66C 31.8242 44.9151 31.8889 44.0524 31.63 43.26L 31.38 42.47C 31.6371 43.0698 32.0878 43.5662 32.66 43.88C 32.8998 43.2349 32.8998 42.5251 32.66 41.88C 32.9706 42.5071 33.4906 43.0058 34.13 43.29C 34.3209 42.6654 34.2891 41.9938 34.04 41.39L 34.42 42.12C 34.8029 42.8573 35.4545 43.4194 36.24 43.69C 36.3837 43.0122 36.2883 42.3055 35.97 41.69L 36.48 42.49C 36.96 43.2444 37.712 43.7852 38.58 44C 38.6728 43.2526 38.5031 42.4962 38.1 41.86L 38.78 42.75C 39.3667 43.5172 40.226 44.0293 41.18 44.18C 41.2255 43.7939 41.1914 43.4025 41.08 43.03L 41.73 43.77C 42.1322 44.1785 42.6223 44.4899 43.1629 44.6805C 43.7035 44.8711 44.2805 44.9359 44.85 44.87C 44.9229 44.3002 44.8614 43.7212 44.6704 43.1794C 44.4794 42.6376 44.1642 42.1481 43.75 41.75L 42.97 41.13C 43.321 41.2468 43.6905 41.2976 44.06 41.28C 43.9184 40.3228 43.4044 39.4602 42.63 38.88L 41.73 38.19C 42.3699 38.5841 43.1231 38.7531 43.87 38.67C 43.664 37.7979 43.1211 37.0429 42.36 36.57L 41.56 36.06C 42.1786 36.3683 42.8818 36.4633 43.56 36.33C 43.2968 35.5402 42.7326 34.8862 41.99 34.51L 41.25 34.13C 41.8557 34.3705 42.5243 34.4021 43.15 34.22C 42.8755 33.5741 42.3739 33.0511 41.74 32.75C 42.387 32.9788 43.093 32.9788 43.74 32.75C 43.4351 32.1745 42.9405 31.7222 42.34 31.47L 43.13 31.72C 43.9234 31.9704 44.7828 31.9059 45.53 31.54C 45.1717 30.9497 44.6207 30.5012 43.97 30.27L 44.9 30.48C 45.7794 30.6663 46.6968 30.505 47.46 30.03C 46.9966 29.4384 46.3431 29.0251 45.61 28.86L 46.72 29.01C 47.6784 29.137 48.649 28.8899 49.43 28.32C 49.1882 28.047 48.8963 27.823 48.57 27.66L 49.57 27.72C 50.1454 27.7287 50.7151 27.6051 51.2352 27.3589C 51.7553 27.1128 52.2119 26.7505 52.57 26.3C 52.2172 25.843 51.7618 25.4755 51.2406 25.2271C 50.7195 24.9786 50.1472 24.8563 49.57 24.87"/>
<path id="path1_fill" d="M 9.15527e-07 0L 9.15527e-07 26.29L 1.42 3C 1.42865 2.42463 1.30513 1.85495 1.05894 1.33483C 0.812753 0.814721 0.450473 0.358052 9.15527e-07 2.22045e-16"/>
<path id="path2_fill" d="M -1.90735e-07 0.0250139L 18.59 18.615L 3.12 1.12501C 2.7178 0.716516 2.22775 0.405119 1.6871 0.214507C 1.14646 0.0238942 0.56946 -0.0409133 -1.90735e-07 0.0250139"/>
<path id="path3_fill" d="M 1.11022e-16 1.43032L 26.29 1.43032L 3 0.000316057C 2.4238 -0.00714757 1.8536 0.117924 1.33343 0.365873C 0.813261 0.613821 0.357039 0.978011 0 1.43032"/>
<path id="path4_fill" d="M 0.0250139 18.59L 18.615 9.15527e-07L 1.12501 15.47C 0.716516 15.8722 0.405119 16.3623 0.214507 16.9029C 0.0238942 17.4435 -0.0409133 18.0205 0.0250139 18.59"/>
<path id="path5_fill" d="M 1.42043 26.29L 1.42043 9.15527e-07L 0.000425942 23.3C -0.00822618 23.8754 0.115298 24.4451 0.361485 24.9652C 0.607672 25.4853 0.969954 25.9419 1.42043 26.3"/>
<path id="path6_fill" d="M 18.59 18.59L 9.15527e-07 9.15527e-07L 15.47 17.48C 15.8722 17.8885 16.3623 18.1999 16.9029 18.3905C 17.4435 18.5811 18.0205 18.6459 18.59 18.58"/>
<path id="path7_fill" d="M 26.29 9.15527e-07L 9.15527e-07 9.15527e-07L 23.3 1.42C 23.8754 1.42865 24.4451 1.30513 24.9652 1.05894C 25.4853 0.812753 25.9419 0.450473 26.3 9.15527e-07"/>
<path id="path8_fill" d="M 18.59 -1.90735e-07L 9.15527e-07 18.59L 17.48 3.12C 17.8891 2.71825 18.2009 2.22825 18.3916 1.68748C 18.5822 1.14671 18.6467 0.569502 18.58 -1.90735e-07"/>
<path id="path9_fill" d="M 2.28882e-07 -1.04904e-07L 2 23.18L 1.15 2.55C 1.10889 1.58373 0.697021 0.670466 2.28882e-07 -1.04904e-07"/>
<path id="path10_fill" d="M 3.8147e-08 0.000578932L 17.83 15.0006L 2.62 1.00058C 1.9083 0.341849 0.969613 -0.0164295 3.8147e-08 0.000578932"/>
<path id="path11_fill" d="M -1.04904e-07 2L 23.18 -3.05176e-07L 2.55 0.880001C 1.58373 0.921114 0.670466 1.33298 -1.04904e-07 2.03"/>
<path id="path12_fill" d="M 0.000512058 17.83L 15.0005 6.86646e-07L 1.00051 15.21C 0.342676 15.9223 -0.0154597 16.8606 0.000512058 17.83"/>
<path id="path13_fill" d="M 2 23.18L -3.05176e-07 9.15527e-07L 0.880001 20.63C 0.921114 21.5963 1.33298 22.5095 2.03 23.18"/>
<path id="path14_fill" d="M 17.83 15L 6.86646e-07 0L 15.21 14C 15.9223 14.6578 16.8606 15.016 17.83 15Z"/>
<path id="path15_fill" d="M 23.18 0.0300002L 9.15527e-07 2.03L 20.63 1.15C 21.5963 1.10889 22.5095 0.69702 23.18 -4.57764e-07"/>
<path id="path16_fill" d="M 15 3.8147e-08L 0 17.83L 14 2.62C 14.6587 1.9083 15.017 0.969613 15 3.8147e-08"/>
<path id="path17_fill" d="M -7.62939e-07 -7.62939e-08L 3.74 21.21L 1.26 2.26C 1.14609 1.37272 0.694864 0.563386 -7.62939e-07 -7.62939e-08Z"/>
<path id="path18_fill" d="M -3.8147e-07 0.019804L 17.64 12.3698L 2.49 0.719805C 1.78076 0.175231 0.889108 -0.0754342 -3.8147e-07 0.019804"/>
<path id="path19_fill" d="M -7.62939e-08 3.74L 21.21 2.28882e-07L 2.26 2.5C 1.37571 2.60879 0.566824 3.0526 -7.62939e-08 3.74"/>
<path id="path20_fill" d="M 0.019804 17.64L 12.3698 9.15527e-07L 0.719805 15.15C 0.175231 15.8592 -0.0754342 16.7509 0.019804 17.64"/>
<path id="path21_fill" d="M 3.71 21.2L 9.15527e-07 9.15527e-07L 2.48 18.95C 2.58964 19.8289 3.02934 20.6333 3.71 21.2"/>
<path id="path22_fill" d="M 17.64 12.35L 9.15527e-07 9.15527e-07L 15.15 11.65C 15.8592 12.1946 16.7509 12.4452 17.64 12.35"/>
<path id="path23_fill" d="M 21.2 -7.62939e-07L 9.15527e-07 3.74L 18.95 1.26C 19.8373 1.14609 20.6466 0.694864 21.21 -7.62939e-07"/>
<path id="path24_fill" d="M 12.35 -3.8147e-07L 9.15527e-07 17.64L 11.65 2.49C 12.1946 1.78076 12.4452 0.889108 12.35 -3.8147e-07"/>
<path id="path25_fill" d="M 3.8147e-07 0.0100001L 5.18 19.36L 1.36 2C 1.18526 1.18397 0.701472 0.467235 0.0100006 -1.71661e-07"/>
<path id="path26_fill" d="M 0.0199996 0.0712661L 17.37 10.0713L 2.37 0.511265C 1.66776 0.0608149 0.818469 -0.100442 7.6294e-08 0.0612658"/>
<path id="path27_fill" d="M 0.0100001 5.18L 19.36 9.15527e-07L 2 3.83C 1.18438 4.00571 0.467981 4.48928 -1.71661e-07 5.18"/>
<path id="path28_fill" d="M 0.0806779 17.35L 10.0807 6.86646e-07L 0.510678 15C 0.0612091 15.7026 -0.0999752 16.5515 0.0606775 17.37"/>
<path id="path29_fill" d="M 5.18 19.34L 9.15527e-07 9.15527e-07L 3.83 17.35C 4.00571 18.1656 4.48928 18.882 5.18 19.35"/>
<path id="path30_fill" d="M 17.35 10L 6.86646e-07 -7.62939e-07L 15 9.57C 15.7026 10.0195 16.5515 10.1807 17.37 10.02"/>
<path id="path31_fill" d="M 19.34 3.8147e-07L 9.15527e-07 5.19L 17.36 1.36C 18.1756 1.18429 18.892 0.700725 19.36 0.0100006"/>
<path id="path32_fill" d="M 10 0.0199996L -7.62939e-07 17.37L 9.57 2.37C 10.0195 1.66737 10.1807 0.818473 10.02 7.62939e-08"/>
<path id="path33_fill" d="M -3.8147e-07 -4.57764e-07L 6.39 17.56L 1.39 1.74C 1.16708 1.00314 0.669425 0.380169 -3.8147e-07 -4.57764e-07"/>
<path id="path34_fill" d="M 3.8147e-07 0.118833L 16.94 8.01883L 2.24 0.348834C 1.55152 -0.0157752 0.748207 -0.0982599 3.8147e-07 0.118833"/>
<path id="path35_fill" d="M -4.57764e-07 6.39L 17.56 9.15527e-07L 1.74 5C 0.998019 5.23019 0.374263 5.73923 -4.57764e-07 6.42"/>
<path id="path36_fill" d="M 0.118833 16.94L 8.01883 9.15527e-07L 0.348834 14.71C -0.0157752 15.3985 -0.0982599 16.2018 0.118833 16.95"/>
<path id="path37_fill" d="M 6.39 17.56L 9.15527e-07 9.15527e-07L 5 15.82C 5.23019 16.562 5.73923 17.1857 6.42 17.56"/>
<path id="path38_fill" d="M 16.94 7.9L 9.15527e-07 9.15527e-07L 14.71 7.71C 15.3985 8.07461 16.2018 8.15709 16.95 7.94"/>
<path id="path39_fill" d="M 17.56 0.0299996L 9.15527e-07 6.42L 15.82 1.42C 16.562 1.18981 17.1857 0.680771 17.56 8.39233e-07"/>
<path id="path40_fill" d="M 7.9 3.8147e-07L 9.15527e-07 16.94L 7.71 2.24C 8.07461 1.55152 8.15709 0.748207 7.94 3.8147e-07"/>
<path id="path41_fill" d="M 6.39 -4.57764e-07L 9.15527e-07 17.56L 6.36 2.27C 6.6519 1.5484 6.6519 0.741598 6.36 0.02"/>
<path id="path42_fill" d="M -6.10352e-07 3.8147e-07L 7.9 16.94L 1.61 1.65C 1.31521 0.93007 0.752287 0.352805 0.0400003 0.0400003"/>
<path id="path43_fill" d="M -4.57764e-07 0.188925L 17.56 6.57893L 2.27 0.218926C 1.5484 -0.0729749 0.741598 -0.0729749 0.02 0.218926"/>
<path id="path44_fill" d="M 3.8147e-07 7.9L 16.94 9.15527e-07L 1.65 6.33C 0.93007 6.62479 0.352805 7.18771 0.0400003 7.9"/>
<path id="path45_fill" d="M 0.188925 17.56L 6.57893 9.15527e-07L 0.218926 15.31C -0.0729749 16.0316 -0.0729749 16.8384 0.218926 17.56"/>
<path id="path46_fill" d="M 7.9 16.94L 9.15527e-07 9.15527e-07L 6.33 15.33C 6.62479 16.0499 7.18771 16.6272 7.9 16.94"/>
<path id="path47_fill" d="M 17.56 6.39L 9.15527e-07 9.15527e-07L 15.31 6.36C 16.0316 6.6519 16.8384 6.6519 17.56 6.36"/>
<path id="path48_fill" d="M 16.94 -6.10352e-07L 9.15527e-07 7.9L 15.33 1.61C 16.0499 1.31521 16.6272 0.752287 16.94 0.0400003"/>
<path id="path49_fill" d="M 5.18 5.72205e-08L 9.15527e-07 19.35L 5.36 2.4C 5.61142 1.60668 5.54694 0.74694 5.18 5.72205e-08"/>
<path id="path50_fill" d="M 4.57764e-07 -4.19617e-07L 10 17.35L 1.83 1.57C 1.44707 0.832672 0.795526 0.270624 0.0100007 -4.19617e-07"/>
<path id="path51_fill" d="M 5.72205e-08 0.32019L 19.35 5.50019L 2.4 0.15019C 1.60656 -0.100186 0.747215 -0.0357342 5.72205e-08 0.33019"/>
<path id="path52_fill" d="M -4.19617e-07 10L 17.35 -7.62939e-07L 1.58 8.18C 0.838892 8.56092 0.273035 9.21273 -4.19617e-07 10"/>
<path id="path53_fill" d="M 0.32019 19.35L 5.50019 6.86646e-07L 0.15019 16.95C -0.100186 17.7434 -0.0357342 18.6028 0.33019 19.35"/>
<path id="path54_fill" d="M 10 17.35L -7.62939e-07 6.86646e-07L 8.19 15.77C 8.57293 16.5073 9.22448 17.0694 10.01 17.34"/>
<path id="path55_fill" d="M 19.34 5.18L 9.15527e-07 9.15527e-07L 16.94 5.36C 17.7334 5.61037 18.5928 5.54592 19.34 5.18"/>
<path id="path56_fill" d="M 17.35 4.57764e-07L 6.86646e-07 10L 15.78 1.83C 16.5173 1.44707 17.0794 0.795526 17.35 0.0100007"/>
<path id="path57_fill" d="M 3.71 -7.62939e-08L 9.15527e-07 21.21L 4.15 2.56C 4.33924 1.68186 4.18158 0.764561 3.71 -7.62939e-08Z"/>
<path id="path58_fill" d="M 0.0399996 -3.8147e-07L 12.39 17.64L 2.1 1.51C 1.62 0.75556 0.868001 0.21484 -3.8147e-07 -3.8147e-07"/>
<path id="path59_fill" d="M -7.62939e-08 0.501762L 21.21 4.24176L 2.56 0.081762C 1.6876 -0.110747 0.774578 0.0396333 0.0100002 0.501762"/>
<path id="path60_fill" d="M -3.8147e-07 12.35L 17.64 9.15527e-07L 1.51 10.25C 0.75556 10.73 0.21484 11.482 -3.8147e-07 12.35Z"/>
<path id="path61_fill" d="M 0.502753 21.21L 4.24275 6.86646e-07L 0.0827531 18.66C -0.111383 19.5356 0.039018 20.4523 0.502753 21.22"/>
<path id="path62_fill" d="M 12.35 17.64L 9.15527e-07 9.15527e-07L 10.25 16.12C 10.73 16.8744 11.482 17.4152 12.35 17.63"/>
<path id="path63_fill" d="M 21.2 3.71L 9.15527e-07 9.15527e-07L 18.65 4.15C 19.525 4.33656 20.4382 4.17899 21.2 3.71"/>
<path id="path64_fill" d="M 17.64 0.0399996L 9.15527e-07 12.39L 16.12 2.1C 16.8744 1.62 17.4152 0.868001 17.63 -3.8147e-07"/>
<path id="path65_fill" d="M 2 -1.04904e-07L -3.05176e-07 23.18L 2.68 2.71C 2.80697 1.75155 2.55986 0.781026 1.99 -1.04904e-07"/>
<path id="path66_fill" d="M -7.62939e-08 3.8147e-08L 15 17.83L 2.41 1.43C 1.82265 0.663569 0.963611 0.151723 0.0100002 3.8147e-08"/>
<path id="path67_fill" d="M -1.04904e-07 0.722578L 23.18 2.72258L 2.71 0.0325772C 1.75155 -0.0943926 0.781026 0.152716 -1.04904e-07 0.722578"/>
<path id="path68_fill" d="M 3.8147e-08 15L 17.83 0L 1.43 12.59C 0.662789 13.1767 0.150741 14.036 3.8147e-08 14.99"/>
<path id="path69_fill" d="M 0.722578 23.18L 2.72258 9.15527e-07L 0.0325772 20.47C -0.0943926 21.4284 0.152716 22.399 0.722578 23.18"/>
<path id="path70_fill" d="M 15 17.83L 0 6.86646e-07L 12.59 16.4C 13.1767 17.1672 14.036 17.6793 14.99 17.83"/>
<path id="path71_fill" d="M 23.18 2L 9.15527e-07 -3.05176e-07L 20.47 2.68C 21.4284 2.80697 22.399 2.55986 23.18 1.99"/>
<path id="path72_fill" d="M 17.83 -7.62939e-08L 6.86646e-07 15L 16.4 2.4C 17.1672 1.81335 17.6793 0.953966 17.83 -7.62939e-08"/>
<path id="path73_fill" d="M 7.9 22.11C 7.9 22.11 3.14 19.97 1.54 19.28C 1.0813 19.0414 0.69586 18.6829 0.424684 18.2427C 0.153508 17.8025 0.00674107 17.297 -3.8147e-07 16.78L -3.8147e-07 2.67029e-07L 15.77 2.67029e-07L 15.77 16.78C 15.7561 17.2901 15.606 17.7873 15.3352 18.2199C 15.0644 18.6524 14.6828 19.0046 14.23 19.24C 12.64 19.93 7.89 22.07 7.89 22.07"/>
<path id="path74_fill" d="M 1.80062 19.32C 3.27062 19.96 7.42062 21.82 8.07062 22.11C 8.71062 21.82 12.8506 19.96 14.3206 19.32C 14.7474 19.1081 15.1098 18.7859 15.37 18.3867C 15.6302 17.9875 15.7789 17.526 15.8006 17.05L 15.8006 0.43L 0.410616 0.43L 0.410616 17.05C 0.419437 17.5178 0.552901 17.9748 0.79724 18.3738C 1.04158 18.7729 1.38795 19.0995 1.80062 19.32L 1.80062 19.32ZM 8.07062 22.56L 7.98062 22.56C 7.98062 22.56 3.20062 20.41 1.63062 19.73C 1.13042 19.4734 0.712394 19.0814 0.424197 18.5987C 0.135999 18.116 -0.0107714 17.5621 0.000616519 17L 0.000616519 0L 16.1806 0L 16.1806 17C 16.1744 17.5478 16.0182 18.0835 15.7291 18.5489C 15.44 19.0143 15.029 19.3917 14.5406 19.64L 14.5406 19.64C 12.9706 20.32 8.25062 22.45 8.21062 22.47L 8.07062 22.56Z"/>
<path id="path75_fill" d="M 10.33 10.27L 9.82 10.27C 9.75222 10.0073 9.62751 9.76278 9.4547 9.55368C 9.28189 9.34458 9.0652 9.17604 8.82 9.06C 8.82 9.06 9.09 6.8 9.23 5.64C 9.42473 4.78103 9.79967 3.97321 10.33 3.27L 10.33 10.27ZM 10.33 14.06L 8.23 14.06C 8.22483 13.5833 8.1576 13.1093 8.03 12.65C 8.43892 12.6237 8.8299 12.4725 9.15005 12.2167C 9.4702 11.9609 9.70406 11.613 9.82 11.22L 10.33 11.22L 10.33 14.06ZM 6.1 14.06C 6.11097 13.7821 6.21581 13.516 6.39743 13.3054C 6.57905 13.0947 6.82671 12.9518 7.1 12.9C 7.21152 13.2762 7.26216 13.6678 7.25 14.06L 6.1 14.06ZM 6.1 16.94L 6.1 14.94L 7.1 14.94C 6.99332 15.6804 6.64118 16.3636 6.1 16.88L 6.1 16.94ZM 5.61 12.65L 4.52 11.92C 4.99445 11.1184 5.36095 10.2576 5.61 9.36C 5.85883 10.2577 6.22535 11.1185 6.7 11.92L 5.61 12.65ZM 3.99 14.01C 3.97714 13.6178 4.0278 13.2261 4.14 12.85C 4.41329 12.9018 4.66095 13.0447 4.84257 13.2554C 5.02419 13.466 5.12903 13.7321 5.14 14.01L 3.99 14.01ZM 5.12 16.89C 4.57882 16.3736 4.22668 15.6904 4.12 14.95L 5.12 14.95L 5.12 16.89ZM 3.03 14.01L 0.93 14.01L 0.93 11.18L 1.44 11.18C 1.55594 11.573 1.7898 11.9209 2.10995 12.1767C 2.4301 12.4325 2.82108 12.5837 3.23 12.61C 3.10273 13.0694 3.03551 13.5433 3.03 14.02L 3.03 14.01ZM 0.93 3.27C 1.46009 3.96347 1.83829 4.76076 2.04 5.61C 2.18 6.77 2.45 9.03 2.45 9.03C 2.2048 9.14604 1.98811 9.31458 1.8153 9.52368C 1.64249 9.73278 1.51778 9.97733 1.45 10.24L 0.93 10.24L 0.93 3.27ZM 8.26 5.53L 7.77 9.81C 7.84295 9.79933 7.91705 9.79933 7.99 9.81C 8.14 9.81 8.93 10.01 8.93 10.73C 8.93032 10.9868 8.83186 11.2338 8.655 11.42C 8.47815 11.6062 8.23646 11.7172 7.98 11.73C 7.68 11.73 7.65 11.73 7.65 11.73C 6.67974 10.2067 6.16935 8.43599 6.18 6.63C 6.18 4.63 6.31 2.89 6.31 1.88C 6.31141 1.19113 6.06671 0.524402 5.62 -4.57764e-07C 5.17251 0.523949 4.9277 1.19097 4.93 1.88C 4.93 2.88 5.06 4.67 5.06 6.63C 5.07065 8.43599 4.56026 10.2067 3.59 11.73C 3.59 11.73 3.59 11.73 3.27 11.73C 3.01354 11.7172 2.77185 11.6062 2.595 11.42C 2.41814 11.2338 2.31968 10.9868 2.32 10.73C 2.32 10.01 3.11 9.81 3.26 9.81C 3.33623 9.79849 3.41377 9.79849 3.49 9.81L 3 5.53C 2.84493 4.64137 2.49565 3.79792 1.97707 3.05982C 1.4585 2.32172 0.783423 1.70716 7.62939e-08 1.26L 7.62939e-08 14.94L 3.18 14.94C 3.39523 16.2015 4.08598 17.3325 5.11 18.1C 5.11 18.1 5.65 18.56 5.67 18.71C 5.67 18.56 6.23 18.1 6.23 18.1C 7.25402 17.3325 7.94477 16.2015 8.16 14.94L 11.33 14.94L 11.33 1.27C 10.5466 1.71716 9.8715 2.33172 9.35293 3.06982C 8.83435 3.80792 8.48507 4.65137 8.33 5.54"/>
</defs>
</svg>
